<svg xmlns="http://www.w3.org/2000/svg" xmlns:xlink="http://www.w3.org/1999/xlink" width="40" zoomAndPan="magnify" viewBox="0 0 30 30.000001" height="40" preserveAspectRatio="xMidYMid meet" version="1.0"><defs><clipPath id="0e4f5025d6"><path d="M 3.386719 2.902344 L 26.613281 2.902344 L 26.613281 26.128906 L 3.386719 26.128906 Z M 3.386719 2.902344 " clip-rule="nonzero"/></clipPath></defs><g clip-path="url(#0e4f5025d6)"><path fill="#1a4789" d="M 26.613281 14.515625 C 26.613281 15.277344 26.539062 16.035156 26.390625 16.78125 C 26.242188 17.53125 26.023438 18.257812 25.730469 18.960938 C 25.4375 19.664062 25.082031 20.335938 24.65625 20.96875 C 24.234375 21.601562 23.75 22.1875 23.210938 22.726562 C 22.671875 23.265625 22.085938 23.75 21.453125 24.171875 C 20.820312 24.597656 20.148438 24.953125 19.445312 25.246094 C 18.742188 25.539062 18.015625 25.757812 17.265625 25.90625 C 16.519531 26.054688 15.761719 26.128906 15 26.128906 C 14.238281 26.128906 13.484375 26.054688 12.734375 25.90625 C 11.988281 25.757812 11.261719 25.539062 10.558594 25.246094 C 9.851562 24.953125 9.183594 24.597656 8.550781 24.171875 C 7.914062 23.75 7.328125 23.265625 6.789062 22.726562 C 6.25 22.1875 5.769531 21.601562 5.34375 20.96875 C 4.921875 20.335938 4.5625 19.664062 4.273438 18.960938 C 3.980469 18.257812 3.761719 17.53125 3.609375 16.78125 C 3.460938 16.035156 3.386719 15.277344 3.386719 14.515625 C 3.386719 13.753906 3.460938 13 3.609375 12.25 C 3.761719 11.503906 3.980469 10.777344 4.273438 10.074219 C 4.5625 9.367188 4.921875 8.699219 5.34375 8.066406 C 5.769531 7.429688 6.25 6.84375 6.789062 6.304688 C 7.328125 5.765625 7.914062 5.285156 8.550781 4.859375 C 9.183594 4.4375 9.851562 4.078125 10.558594 3.789062 C 11.261719 3.496094 11.988281 3.273438 12.734375 3.125 C 13.484375 2.976562 14.238281 2.902344 15 2.902344 C 15.761719 2.902344 16.519531 2.976562 17.265625 3.125 C 18.015625 3.273438 18.742188 3.496094 19.445312 3.789062 C 20.148438 4.078125 20.820312 4.4375 21.453125 4.859375 C 22.085938 5.285156 22.671875 5.765625 23.210938 6.304688 C 23.75 6.84375 24.234375 7.429688 24.65625 8.066406 C 25.082031 8.699219 25.4375 9.367188 25.730469 10.074219 C 26.023438 10.777344 26.242188 11.503906 26.390625 12.25 C 26.539062 13 26.613281 13.753906 26.613281 14.515625 Z M 26.613281 14.515625 " fill-opacity="1" fill-rule="nonzero"/></g><path fill="#ffffff" d="M 17.914062 15.113281 L 18.246094 12.566406 L 15.722656 12.566406 L 15.722656 10.941406 C 15.722656 10.207031 15.929688 9.703125 16.984375 9.703125 L 18.332031 9.703125 L 18.332031 7.425781 C 18.101562 7.394531 17.300781 7.324219 16.367188 7.324219 C 14.425781 7.324219 13.09375 8.511719 13.09375 10.691406 L 13.09375 12.566406 L 10.894531 12.566406 L 10.894531 15.113281 L 13.09375 15.113281 L 13.09375 21.644531 L 15.722656 21.644531 L 15.722656 15.113281 Z M 17.914062 15.113281 " fill-opacity="1" fill-rule="nonzero"/></svg>