<svg xmlns="http://www.w3.org/2000/svg" xmlns:xlink="http://www.w3.org/1999/xlink" width="40" zoomAndPan="magnify" viewBox="0 0 30 30.000001" height="40" preserveAspectRatio="xMidYMid meet" version="1.0"><defs><clipPath id="298fee6424"><path d="M 3.386719 2.960938 L 26 2.960938 L 26 25 L 3.386719 25 Z M 3.386719 2.960938 " clip-rule="nonzero"/></clipPath><clipPath id="859bd9bff5"><path d="M 4 4 L 26.613281 4 L 26.613281 26.1875 L 4 26.1875 Z M 4 4 " clip-rule="nonzero"/></clipPath><clipPath id="9f90778f93"><path d="M 4 3 L 26.613281 3 L 26.613281 26 L 4 26 Z M 4 3 " clip-rule="nonzero"/></clipPath></defs><g clip-path="url(#298fee6424)"><path fill="#83cbd1" d="M 25.300781 13.96875 C 25.300781 14.691406 25.230469 15.40625 25.089844 16.113281 C 24.949219 16.824219 24.742188 17.511719 24.464844 18.179688 C 24.191406 18.847656 23.855469 19.480469 23.453125 20.082031 C 23.054688 20.683594 22.601562 21.238281 22.09375 21.75 C 21.585938 22.261719 21.03125 22.71875 20.433594 23.121094 C 19.835938 23.519531 19.207031 23.859375 18.542969 24.136719 C 17.878906 24.414062 17.191406 24.621094 16.488281 24.761719 C 15.78125 24.902344 15.070312 24.972656 14.351562 24.972656 C 13.632812 24.972656 12.921875 24.902344 12.214844 24.761719 C 11.511719 24.621094 10.824219 24.414062 10.160156 24.136719 C 9.496094 23.859375 8.867188 23.519531 8.269531 23.121094 C 7.671875 22.71875 7.117188 22.261719 6.609375 21.75 C 6.101562 21.238281 5.648438 20.683594 5.25 20.082031 C 4.847656 19.480469 4.511719 18.847656 4.238281 18.179688 C 3.960938 17.511719 3.753906 16.824219 3.613281 16.113281 C 3.472656 15.40625 3.402344 14.691406 3.402344 13.96875 C 3.402344 13.242188 3.472656 12.527344 3.613281 11.820312 C 3.753906 11.109375 3.960938 10.421875 4.238281 9.753906 C 4.511719 9.085938 4.847656 8.453125 5.25 7.851562 C 5.648438 7.25 6.101562 6.695312 6.609375 6.183594 C 7.117188 5.671875 7.671875 5.214844 8.269531 4.8125 C 8.867188 4.414062 9.496094 4.074219 10.160156 3.796875 C 10.824219 3.519531 11.511719 3.3125 12.214844 3.171875 C 12.921875 3.03125 13.632812 2.960938 14.351562 2.960938 C 15.070312 2.960938 15.78125 3.03125 16.488281 3.171875 C 17.191406 3.3125 17.878906 3.519531 18.542969 3.796875 C 19.207031 4.074219 19.835938 4.414062 20.433594 4.8125 C 21.03125 5.214844 21.585938 5.671875 22.09375 6.183594 C 22.601562 6.695312 23.054688 7.25 23.453125 7.851562 C 23.855469 8.453125 24.191406 9.085938 24.464844 9.753906 C 24.742188 10.421875 24.949219 11.109375 25.089844 11.820312 C 25.230469 12.527344 25.300781 13.242188 25.300781 13.96875 Z M 25.300781 13.96875 " fill-opacity="1" fill-rule="nonzero"/></g><g clip-path="url(#859bd9bff5)"><path fill="#e62254" d="M 26.601562 15.175781 C 26.601562 15.898438 26.535156 16.613281 26.394531 17.324219 C 26.253906 18.03125 26.046875 18.722656 25.769531 19.390625 C 25.496094 20.054688 25.15625 20.691406 24.757812 21.292969 C 24.359375 21.894531 23.90625 22.449219 23.398438 22.960938 C 22.886719 23.472656 22.335938 23.925781 21.738281 24.328125 C 21.140625 24.730469 20.507812 25.070312 19.84375 25.347656 C 19.179688 25.621094 18.496094 25.832031 17.789062 25.972656 C 17.085938 26.113281 16.375 26.183594 15.65625 26.183594 C 14.9375 26.183594 14.222656 26.113281 13.519531 25.972656 C 12.8125 25.832031 12.128906 25.621094 11.464844 25.347656 C 10.800781 25.070312 10.171875 24.730469 9.574219 24.328125 C 8.976562 23.925781 8.421875 23.472656 7.914062 22.960938 C 7.40625 22.449219 6.949219 21.894531 6.550781 21.292969 C 6.152344 20.691406 5.816406 20.054688 5.539062 19.390625 C 5.265625 18.722656 5.058594 18.03125 4.917969 17.324219 C 4.777344 16.613281 4.707031 15.898438 4.707031 15.175781 C 4.707031 14.453125 4.777344 13.738281 4.917969 13.027344 C 5.058594 12.320312 5.265625 11.632812 5.539062 10.964844 C 5.816406 10.296875 6.152344 9.660156 6.550781 9.0625 C 6.949219 8.460938 7.40625 7.902344 7.914062 7.394531 C 8.421875 6.882812 8.976562 6.425781 9.574219 6.023438 C 10.171875 5.621094 10.800781 5.285156 11.464844 5.007812 C 12.128906 4.730469 12.8125 4.519531 13.519531 4.378906 C 14.222656 4.238281 14.9375 4.167969 15.65625 4.167969 C 16.375 4.167969 17.085938 4.238281 17.789062 4.378906 C 18.496094 4.519531 19.179688 4.730469 19.84375 5.007812 C 20.507812 5.285156 21.140625 5.621094 21.738281 6.023438 C 22.335938 6.425781 22.886719 6.882812 23.398438 7.394531 C 23.90625 7.902344 24.359375 8.460938 24.757812 9.0625 C 25.15625 9.660156 25.496094 10.296875 25.769531 10.964844 C 26.046875 11.632812 26.253906 12.320312 26.394531 13.027344 C 26.535156 13.738281 26.601562 14.453125 26.601562 15.175781 Z M 26.601562 15.175781 " fill-opacity="1" fill-rule="nonzero"/></g><g clip-path="url(#9f90778f93)"><path fill="#070606" d="M 26.203125 14.671875 C 26.203125 15.394531 26.132812 16.109375 25.992188 16.820312 C 25.851562 17.527344 25.644531 18.21875 25.367188 18.886719 C 25.09375 19.550781 24.757812 20.1875 24.355469 20.789062 C 23.957031 21.390625 23.503906 21.945312 22.996094 22.457031 C 22.488281 22.96875 21.933594 23.421875 21.335938 23.824219 C 20.738281 24.226562 20.109375 24.566406 19.445312 24.84375 C 18.78125 25.117188 18.09375 25.328125 17.390625 25.46875 C 16.683594 25.609375 15.972656 25.679688 15.253906 25.679688 C 14.535156 25.679688 13.824219 25.609375 13.117188 25.46875 C 12.414062 25.328125 11.726562 25.117188 11.0625 24.84375 C 10.398438 24.566406 9.769531 24.226562 9.171875 23.824219 C 8.574219 23.421875 8.019531 22.96875 7.511719 22.457031 C 7.003906 21.945312 6.550781 21.390625 6.152344 20.789062 C 5.75 20.1875 5.414062 19.550781 5.140625 18.886719 C 4.863281 18.21875 4.65625 17.527344 4.515625 16.820312 C 4.375 16.109375 4.304688 15.394531 4.304688 14.671875 C 4.304688 13.949219 4.375 13.234375 4.515625 12.523438 C 4.65625 11.816406 4.863281 11.128906 5.140625 10.460938 C 5.414062 9.792969 5.75 9.15625 6.152344 8.558594 C 6.550781 7.957031 7.003906 7.398438 7.511719 6.890625 C 8.019531 6.378906 8.574219 5.921875 9.171875 5.519531 C 9.769531 5.117188 10.398438 4.78125 11.0625 4.503906 C 11.726562 4.226562 12.414062 4.015625 13.117188 3.875 C 13.824219 3.734375 14.535156 3.664062 15.253906 3.664062 C 15.972656 3.664062 16.683594 3.734375 17.390625 3.875 C 18.09375 4.015625 18.78125 4.226562 19.445312 4.503906 C 20.109375 4.78125 20.738281 5.117188 21.335938 5.519531 C 21.933594 5.921875 22.488281 6.378906 22.996094 6.890625 C 23.503906 7.398438 23.957031 7.957031 24.355469 8.558594 C 24.757812 9.15625 25.09375 9.792969 25.367188 10.460938 C 25.644531 11.128906 25.851562 11.816406 25.992188 12.523438 C 26.132812 13.234375 26.203125 13.949219 26.203125 14.671875 Z M 26.203125 14.671875 " fill-opacity="1" fill-rule="nonzero"/></g><path fill="#ffffff" d="M 22.367188 14.25 L 12.199219 8.347656 C 11.753906 8.089844 11.199219 8.414062 11.199219 8.929688 L 11.199219 20.734375 C 11.199219 21.25 11.753906 21.574219 12.199219 21.316406 L 22.367188 15.414062 C 22.8125 15.152344 22.8125 14.507812 22.367188 14.25 Z M 22.367188 14.25 " fill-opacity="1" fill-rule="nonzero"/></svg>