<svg xmlns="http://www.w3.org/2000/svg" xmlns:xlink="http://www.w3.org/1999/xlink" width="40" zoomAndPan="magnify" viewBox="0 0 30 30.000001" height="40" preserveAspectRatio="xMidYMid meet" version="1.0"><defs><clipPath id="1740c55fdf"><path d="M 3.386719 2.902344 L 26.613281 2.902344 L 26.613281 26.128906 L 3.386719 26.128906 Z M 3.386719 2.902344 " clip-rule="nonzero"/></clipPath></defs><g clip-path="url(#1740c55fdf)"><path fill="#ff0100" d="M 26.613281 14.515625 C 26.613281 20.929688 21.414062 26.125 15 26.125 C 8.585938 26.128906 3.386719 20.929688 3.386719 14.515625 C 3.386719 8.101562 8.585938 2.902344 15 2.902344 C 21.414062 2.902344 26.613281 8.101562 26.613281 14.515625 Z M 26.613281 14.515625 " fill-opacity="1" fill-rule="nonzero"/></g><path fill="#ffffff" d="M 22.621094 15.03125 C 22.621094 16.21875 22.621094 17.480469 22.351562 18.636719 C 22.167969 19.445312 21.503906 20.042969 20.707031 20.132812 C 18.816406 20.34375 16.902344 20.34375 14.996094 20.34375 C 13.09375 20.34375 11.179688 20.34375 9.289062 20.132812 C 8.492188 20.042969 7.828125 19.445312 7.644531 18.636719 C 7.378906 17.480469 7.378906 16.21875 7.378906 15.03125 C 7.378906 13.84375 7.378906 12.582031 7.644531 11.429688 C 7.832031 10.617188 8.496094 10.019531 9.292969 9.929688 C 11.183594 9.71875 13.097656 9.71875 15 9.71875 C 16.90625 9.71875 18.820312 9.71875 20.710938 9.929688 C 21.507812 10.019531 22.171875 10.617188 22.355469 11.429688 C 22.621094 12.582031 22.621094 13.84375 22.621094 15.03125 Z M 22.621094 15.03125 " fill-opacity="1" fill-rule="nonzero"/><path fill="#ff0100" d="M 13.394531 12.195312 L 13.394531 17.894531 L 17.820312 15.042969 Z M 13.394531 12.195312 " fill-opacity="1" fill-rule="nonzero"/></svg>